<svg width="49" height="49" viewBox="0 0 49 49" fill="none" xmlns="http://www.w3.org/2000/svg">
<path d="M8.3261 4.35449C7.31165 4.67031 6.27805 5.72305 5.98137 6.74707C5.85696 7.16816 5.83782 9.42676 5.85696 23.7344L5.88567 40.2432L6.16321 40.7887C6.54602 41.5352 7.1968 42.1764 7.94329 42.5305L8.56536 42.8271L14.2214 42.8559C17.772 42.875 19.9732 42.8463 20.1263 42.7889C20.7197 42.5592 20.8919 41.6213 20.4325 41.1619L20.1933 40.9131L14.5564 40.8652L8.91946 40.8174L8.54622 40.5207C7.78059 39.9082 7.84758 41.516 7.84758 23.5334V7.49355L8.0677 7.08203C8.22083 6.79492 8.4218 6.59394 8.70891 6.44082L9.12044 6.2207H18.3941H27.6581V9.15879C27.6581 11.9246 27.6677 12.1256 27.8495 12.4127C27.9548 12.585 28.0505 12.7381 28.0601 12.7477C28.0792 12.7572 29.5722 12.7955 31.3906 12.8242L34.6923 12.8721L34.721 20.1072L34.7402 27.3424L34.3191 27.5051C33.3525 27.8783 32.5007 28.6344 28.1271 33.008C23.5812 37.5539 23.3993 37.7645 23.007 38.9512C22.7581 39.7072 22.7773 40.8365 23.0548 41.6596C23.4281 42.7697 24.3372 43.8033 25.4091 44.3393C26.146 44.7125 26.7107 44.8178 27.639 44.7699C28.5482 44.7125 29.2085 44.502 29.9359 44.033C30.1847 43.8799 32.1945 41.9275 34.4052 39.6977C38.8171 35.257 38.865 35.1996 38.932 34.0607C38.9798 33.209 38.731 32.6252 37.9845 31.917C37.2476 31.2184 36.6925 30.96 35.8886 30.9695C35.4101 30.9695 35.1517 31.027 34.7497 31.2375C34.0607 31.582 33.9458 31.6873 30.9886 34.702L28.4238 37.3146V37.7549C28.4238 38.3674 28.797 38.7598 29.3904 38.7598C29.8019 38.7598 29.8115 38.7502 32.539 36.0418C34.0415 34.5488 35.3718 33.2568 35.5058 33.1707C35.8886 32.9123 36.3097 32.9697 36.6925 33.343C37.1136 33.7354 37.1327 34.0129 36.7595 34.5105C36.6064 34.7115 34.7497 36.616 32.6251 38.7215C28.4333 42.8846 28.5099 42.8271 27.4667 42.808C26.5671 42.7984 25.8015 42.3295 25.2847 41.449C25.0646 41.0854 25.0263 40.8939 25.0263 40.3389C25.0359 39.1234 24.9689 39.2 29.7923 34.3957C33.3238 30.8738 34.2425 30.0029 34.7976 29.6775C36.5298 28.6631 38.1663 28.9119 39.6689 30.424C41.4011 32.1658 41.6499 33.7258 40.4728 35.4771C40.3101 35.7355 38.5204 37.5922 36.5011 39.6211C34.4626 41.6691 32.7878 43.4301 32.7304 43.5832C32.5007 44.2053 33.0175 44.8848 33.7257 44.8848C34.1085 44.8848 34.1564 44.8465 37.5921 41.4107C39.5062 39.5062 41.3341 37.6305 41.6404 37.2477C43.095 35.4484 43.564 33.4482 42.9802 31.582C42.2433 29.2469 39.8316 27.1414 37.6113 26.9021L37.0849 26.8447L37.037 19.0736L36.9892 11.293L36.415 10.7283C36.0991 10.4125 34.4243 8.81426 32.6825 7.18731L29.5243 4.21094L19.1406 4.22051C10.5368 4.22051 8.6802 4.24922 8.3261 4.35449ZM31.582 9.17793L33.2568 10.8049H31.515L29.7636 10.8145V9.1875C29.7636 8.28789 29.8019 7.56055 29.8402 7.56055C29.8784 7.56055 30.6728 8.28789 31.582 9.17793Z" fill="white"/>
<path d="M13.743 18.9971C13.341 19.2076 13.2166 19.4182 13.207 19.868C13.207 20.3657 13.475 20.7293 13.9535 20.8633C14.1928 20.9399 16.5854 20.959 21.5619 20.9399L28.8258 20.9112L29.1033 20.5953C29.4861 20.1647 29.4861 19.6479 29.1033 19.2172L28.8258 18.9014L21.4184 18.8727C14.9393 18.8535 13.9822 18.8727 13.743 18.9971Z" fill="white"/>
<path d="M13.4845 25.8303C13.006 26.3184 13.14 27.1414 13.7525 27.4572C14.0587 27.6104 28.5099 27.6104 28.8544 27.4477C29.4286 27.1893 29.5626 26.2992 29.1032 25.8303L28.8257 25.5528H21.2939H13.762L13.4845 25.8303Z" fill="white"/>
<path d="M13.7238 32.1563C13.3984 32.2807 13.207 32.6348 13.207 33.0941C13.207 33.4291 13.2645 33.5631 13.4846 33.7928L13.7621 34.0703H18.375H22.9879L23.2654 33.7928C23.6387 33.4195 23.6578 32.7783 23.3133 32.3764L23.0836 32.1084L18.4994 32.0893C15.9824 32.0797 13.8291 32.1084 13.7238 32.1563Z" fill="white"/>
</svg>
