<svg width="1440" height="1024" viewBox="0 0 1440 1024" fill="none" xmlns="http://www.w3.org/2000/svg">
<rect width="1440" height="1024" fill="white"/>
<g clip-path="url(#clip0_176_289)">
<rect y="103" width="1440" height="921" fill="white"/>
<circle cx="89" cy="760" r="157" stroke="#530C6C" stroke-opacity="0.15" stroke-width="6"/>
<circle cx="1003" cy="803" r="157" stroke="#530C6C" stroke-opacity="0.15" stroke-width="6"/>
<circle cx="146.5" cy="642.5" r="82.5" stroke="#530C6C" stroke-opacity="0.15" stroke-width="6"/>
<circle cx="374.5" cy="1005.5" r="82.5" stroke="#530C6C" stroke-opacity="0.15" stroke-width="6"/>
<circle cx="374.5" cy="782.5" r="82.5" stroke="#530C6C" stroke-opacity="0.15" stroke-width="6"/>
<circle cx="146.5" cy="329.5" r="82.5" stroke="#530C6C" stroke-opacity="0.15" stroke-width="6"/>
<circle cx="694.5" cy="877.5" r="82.5" stroke="#530C6C" stroke-opacity="0.15" stroke-width="6"/>
<circle cx="865.5" cy="415.5" r="82.5" stroke="#530C6C" stroke-opacity="0.15" stroke-width="6"/>
<circle cx="654" cy="643" r="157" stroke="#530C6C" stroke-opacity="0.15" stroke-width="6"/>
<circle cx="334" cy="440" r="157" stroke="#530C6C" stroke-opacity="0.15" stroke-width="6"/>
<circle cx="14" cy="219" r="157" stroke="#530C6C" stroke-opacity="0.15" stroke-width="6"/>
<circle cx="534" cy="1080" r="157" stroke="#530C6C" stroke-opacity="0.15" stroke-width="6"/>
<circle cx="1352" cy="93" r="157" stroke="#530C6C" stroke-opacity="0.15" stroke-width="6"/>
<circle cx="1172.5" cy="136.5" r="82.5" stroke="#530C6C" stroke-opacity="0.15" stroke-width="6"/>
<circle cx="1459.5" cy="372.5" r="82.5" stroke="#530C6C" stroke-opacity="0.15" stroke-width="6"/>
<circle cx="239" cy="151" r="100" stroke="#530C6C" stroke-opacity="0.15" stroke-width="6"/>
<circle cx="1332.5" cy="568.5" r="82.5" stroke="#530C6C" stroke-opacity="0.15" stroke-width="6"/>
<circle cx="1408.5" cy="750.5" r="82.5" stroke="#530C6C" stroke-opacity="0.15" stroke-width="6"/>
<circle cx="1212.5" cy="365.5" r="82.5" stroke="#530C6C" stroke-opacity="0.15" stroke-width="6"/>
<path d="M1258.85 803.46C1234.95 805.726 1211.53 816.36 1194.06 832.921C1184.21 842.265 1175.6 854.677 1170.31 867.194C1167.18 874.481 1164.76 883.581 1163.47 892.541C1162.84 896.934 1162.84 912.554 1163.47 916.947C1166.34 936.995 1174.17 954.358 1187 969.315C1188.99 971.616 1189.02 971.651 1189.87 971.059C1190.35 970.745 1190.75 970.361 1190.75 970.222C1190.75 970.082 1189.47 968.444 1187.92 966.561C1176.38 952.545 1169.09 936.542 1166.23 918.691C1165.31 912.973 1165.31 896.516 1166.23 890.798C1168.1 879.014 1171.71 868.658 1177.4 858.373C1193.55 829.26 1224.36 809.352 1258.7 805.9C1290.44 802.693 1321.36 813.048 1343.94 834.455C1363.9 853.422 1374.6 877.828 1374.6 904.5C1374.6 921.305 1371.15 935.112 1363.2 949.93C1355.15 964.992 1343.35 977.683 1328.64 987.097C1325.92 988.84 1323.64 990.304 1323.56 990.339C1323.34 990.514 1324.37 992.257 1324.7 992.257C1325.37 992.257 1333.2 987.166 1337.1 984.238C1342.02 980.472 1349.3 973.569 1353.27 968.897C1365.56 954.358 1373.39 937.169 1376.33 918.516C1377.14 913.217 1377.25 897.736 1376.48 892.193C1370.59 848.576 1336.29 813.571 1290.91 804.855C1281.35 803.042 1269.18 802.519 1258.85 803.46Z" fill="#C27BDE"/>
<path d="M1240.24 829.818C1239.33 830.515 1239.29 830.655 1239.29 834.281V838.046L1237.01 838.465C1231.6 839.476 1222.37 842.962 1217.56 845.891C1216.45 846.554 1215.39 847.181 1215.17 847.321C1214.95 847.46 1213.29 846.205 1211.34 844.427C1208.55 841.847 1207.74 841.289 1206.82 841.289C1205.83 841.289 1204.8 842.126 1198.95 847.669C1193.25 853.039 1192.22 854.189 1192.22 855.061C1192.22 855.898 1192.88 856.7 1195.57 859.28L1198.95 862.487L1197.26 865.067C1193.84 870.262 1190.35 878.421 1189.24 883.72L1188.8 885.917H1184.83C1179.1 885.917 1179.35 885.429 1179.35 896.202C1179.35 906.976 1179.1 906.488 1184.87 906.488H1188.88L1189.1 907.778C1190.09 913.426 1193.29 921.131 1197 926.919C1197.81 928.139 1198.47 929.324 1198.47 929.534C1198.47 929.708 1196.89 931.416 1194.98 933.299C1189.94 938.25 1189.76 937.588 1198.47 945.502C1204.1 950.592 1205.61 951.813 1206.45 951.813C1207.26 951.813 1208.22 951.115 1211.09 948.326L1214.65 944.805L1217.78 946.583C1223.37 949.791 1229.43 952.161 1235.72 953.591L1239.29 954.393V958.123C1239.29 963.806 1237.38 963.318 1259.29 963.318C1269.22 963.318 1277.57 963.179 1277.82 963.039C1278.08 962.865 1279.07 960.076 1280.07 956.833L1281.83 950.941L1297.05 950.836L1312.31 950.767L1314.12 956.589C1315.07 959.832 1316.14 962.656 1316.47 962.865C1317.24 963.493 1350.33 963.528 1351 962.9C1351.25 962.656 1351.44 962.133 1351.44 961.749C1351.44 961.331 1349.6 956.136 1347.36 950.209C1337.17 923.258 1323.09 885.882 1319.56 876.503C1317.42 870.855 1315.44 865.939 1315.11 865.59C1314.63 865.067 1313.82 864.998 1308.78 864.998H1303.01L1301.65 863.045L1300.29 861.127L1303.78 857.641C1307.24 854.224 1307.72 853.457 1307.09 851.993C1306.98 851.714 1303.86 848.715 1300.14 845.333C1294.7 840.417 1293.16 839.197 1292.35 839.197C1291.54 839.197 1290.51 839.964 1287.57 842.753L1283.82 846.31L1279.11 844.008C1273.96 841.498 1268.63 839.581 1263.96 838.639L1260.98 838.046V834.281C1260.98 828.772 1261.61 829.086 1250.28 829.086C1241.68 829.086 1241.16 829.121 1240.24 829.818ZM1257.2 855.061C1264.95 856.246 1273.63 860.081 1278.71 864.579C1279.63 865.381 1279.66 865.52 1279.22 866.357C1278.96 866.845 1278.26 868.554 1277.75 870.123C1277.2 871.727 1276.61 873.017 1276.46 873.017C1276.32 873.017 1275.54 872.389 1274.77 871.587C1272.79 869.669 1267.93 866.636 1264.73 865.346C1260.25 863.533 1256.24 862.801 1251.05 862.766C1241.05 862.731 1232.74 865.939 1225.87 872.494C1208.36 889.055 1213.62 916.808 1236.13 926.71C1240.83 928.801 1244.88 929.638 1250.39 929.638C1253 929.673 1255.1 929.778 1255.1 929.882C1255.1 929.987 1254.47 931.8 1253.67 933.892L1252.23 937.692L1249.88 937.797C1244.8 938.006 1236.9 936.332 1231.38 933.822C1222.63 929.917 1214.58 922.282 1210.42 913.984C1205.17 903.489 1204.87 891.042 1209.58 880.164C1214.47 868.902 1225.43 859.593 1237.85 856.177C1243.7 854.538 1251.13 854.119 1257.2 855.061ZM1260.25 868.066C1264.99 869.565 1268.74 871.727 1272.12 874.934C1273.71 876.399 1274.96 877.689 1274.96 877.758C1274.96 877.863 1275.43 878.595 1276.02 879.397C1276.57 880.199 1277.6 881.838 1278.23 883.023C1278.85 884.243 1279.51 885.22 1279.7 885.22C1279.88 885.22 1279.96 885.568 1279.85 885.952C1279.7 886.44 1279.85 886.858 1280.21 887.137C1280.91 887.59 1281.94 891.391 1281.9 893.239C1281.9 894.424 1281.87 894.424 1281.5 893.587L1281.1 892.716L1280.95 893.518C1280.84 894.006 1281.06 894.529 1281.5 894.912C1282.2 895.47 1282.2 895.644 1281.72 899.689C1281.43 901.99 1280.84 904.953 1280.4 906.278C1279.44 909.137 1276.54 913.879 1274.7 915.553C1273.96 916.215 1273.59 916.459 1273.89 916.11C1274.37 915.483 1274.33 915.448 1273.74 915.657C1273.37 915.797 1272.53 915.901 1271.9 915.901C1270.95 915.901 1270.54 916.18 1269.81 917.226C1268.52 919.039 1268.52 919.144 1269.48 918.865C1270.18 918.69 1270.25 918.725 1269.81 919.004C1269.51 919.213 1268.92 919.283 1268.56 919.179C1267.93 918.969 1267.9 919.109 1268.08 920.05C1268.3 921.026 1268.26 921.096 1267.6 920.713C1267.05 920.364 1266.79 920.399 1266.24 920.852C1265.8 921.236 1265.36 921.34 1265.06 921.166C1264.66 920.922 1264.73 920.748 1265.4 920.434C1266.24 920.015 1266.24 919.98 1264.92 919.423C1263.89 918.969 1263.67 918.725 1264 918.412C1264.33 918.098 1264.26 917.854 1263.74 917.296C1263.37 916.912 1262.97 916.599 1262.82 916.599C1262.71 916.599 1262.09 917.296 1261.46 918.133C1260.58 919.318 1260.43 919.667 1260.91 919.562C1261.28 919.492 1261.87 919.667 1262.23 919.946C1262.78 920.294 1262.82 920.503 1262.53 920.887C1262.27 921.166 1262.23 921.48 1262.38 921.654C1262.53 921.793 1262.09 921.828 1261.39 921.689C1260.73 921.584 1259.84 921.48 1259.44 921.48C1258.89 921.48 1258.78 921.34 1259 920.678C1259.22 919.946 1259.22 919.946 1258.52 920.503C1258.11 920.852 1257.53 921.131 1257.23 921.131C1256.9 921.131 1256.68 921.41 1256.72 921.724C1256.72 922.072 1255.91 922.839 1254.73 923.641C1252.38 925.21 1252.16 925.559 1253.33 925.733C1253.81 925.803 1253.04 925.977 1251.64 926.152C1249.95 926.326 1249 926.291 1248.74 926.047C1248.44 925.768 1248.63 925.664 1249.4 925.664C1250.91 925.664 1250.36 925.35 1247.97 924.827C1246.27 924.443 1245.83 924.443 1245.5 924.827C1245.21 925.175 1245.47 925.35 1246.72 925.594C1248.08 925.873 1248.15 925.942 1247.19 925.977C1245.5 926.012 1241.46 925.106 1238.7 924.06C1235.61 922.909 1231.86 920.852 1232.12 920.469C1232.19 920.294 1232.01 919.946 1231.64 919.702C1231.09 919.248 1231.05 919.283 1231.53 919.806C1232.49 920.992 1231.38 920.399 1229.29 918.656C1228.11 917.679 1227.15 916.668 1227.15 916.389C1227.15 915.692 1227.63 915.797 1228.15 916.599C1228.74 917.435 1231.02 918.656 1230.76 917.958C1230.65 917.679 1230.28 916.633 1229.91 915.587L1229.25 913.67L1228.37 914.716C1227.56 915.657 1227.45 915.692 1227.01 915.099C1226.64 914.646 1226.46 914.576 1226.35 914.925C1226.09 915.657 1225.21 914.786 1223.92 912.415C1222.74 910.288 1222.85 909.591 1224.1 911.229C1224.58 911.822 1224.98 912.031 1225.43 911.857C1226.01 911.648 1225.98 911.578 1225.17 910.846C1224.65 910.392 1224.14 909.346 1223.88 908.196C1223.33 905.79 1222.93 902.304 1223.22 902.304C1223.33 902.304 1224.65 902.931 1226.12 903.698C1227.6 904.465 1228.99 905.093 1229.21 905.093C1229.43 905.093 1229.77 904.186 1229.95 903.071C1230.13 901.99 1230.39 901.118 1230.57 901.153C1230.72 901.223 1231.42 901.258 1232.12 901.258C1233.81 901.258 1233.77 901.781 1231.97 903.594L1230.54 905.023L1234.88 906.627C1237.3 907.499 1239.33 908.231 1239.4 908.231C1239.51 908.231 1239.77 907.499 1239.99 906.557C1240.24 905.651 1240.76 903.803 1241.2 902.443C1241.83 900.281 1242.05 899.933 1242.74 900.037C1243.92 900.142 1247.75 901.362 1247.75 901.606C1247.75 901.711 1247.16 902.094 1246.46 902.443C1245.76 902.827 1244.88 903.663 1244.55 904.361C1243.52 906.313 1242.82 905.999 1242.6 903.524L1242.41 901.432L1241.9 903.001C1241.64 903.873 1241.2 905.407 1240.87 906.418C1240.58 907.464 1240.47 908.44 1240.61 908.579C1241.09 909.033 1249.99 911.438 1250.25 911.229C1250.36 911.125 1250.25 910.602 1249.99 910.114C1249.44 908.893 1249.84 908.545 1250.61 909.556C1251.2 910.288 1251.24 910.218 1251.31 907.359C1251.35 905.72 1251.2 904.396 1251.02 904.396C1250.83 904.396 1250.69 904.012 1250.69 903.559C1250.69 902.652 1250.14 902.094 1249.03 901.885C1248.63 901.816 1248.33 901.571 1248.37 901.397C1248.41 901.188 1247.19 900.665 1245.69 900.212C1244.22 899.758 1242.97 899.27 1242.97 899.131C1242.97 898.713 1245.98 890.659 1246.24 890.38C1246.35 890.24 1248.85 890.833 1251.79 891.705C1254.73 892.576 1257.31 893.343 1257.56 893.413C1257.86 893.518 1257.64 894.842 1256.79 897.911C1256.13 900.316 1255.5 902.408 1255.36 902.513C1255.1 902.757 1252.34 902.269 1250.98 901.781C1250.61 901.641 1250.32 901.676 1250.32 901.85C1250.32 902.025 1251.35 902.443 1252.64 902.757C1255.69 903.594 1255.91 903.629 1256.02 903.001C1256.13 902.478 1258.52 893.831 1258.59 893.692C1258.63 893.657 1259.95 893.901 1261.57 894.25C1263.15 894.633 1265.43 895.086 1266.61 895.331C1268.37 895.679 1268.7 895.854 1268.7 896.481L1268.74 897.248L1269.18 896.516C1269.48 895.993 1269.84 895.854 1270.32 895.993C1270.95 896.237 1270.91 896.307 1270.03 896.83C1269.29 897.283 1269.07 897.736 1269.07 898.643C1269.07 900.037 1269.88 900.316 1270.58 899.131C1270.84 898.643 1271.09 898.503 1271.35 898.747C1271.61 898.991 1271.5 899.41 1271.06 900.037C1270.54 900.77 1270.18 900.944 1269.4 900.839C1268.85 900.735 1268.45 900.804 1268.56 900.944C1268.63 901.118 1268.48 902.164 1268.23 903.315L1267.71 905.407L1270.14 905.616C1275.14 906.104 1274.7 906.243 1275.21 903.873C1275.47 902.722 1275.76 900.665 1275.91 899.305L1276.17 896.795L1275.03 896.551C1274.37 896.446 1273.56 896.411 1273.15 896.551C1272.68 896.69 1272.16 896.516 1271.68 896.063C1271.24 895.644 1270.58 895.331 1270.18 895.331C1269.48 895.331 1269.44 895.086 1269.44 890.519V885.708L1272.12 886.021C1273.56 886.196 1274.81 886.37 1274.88 886.405C1274.92 886.475 1275.18 887.695 1275.4 889.159C1275.65 890.659 1275.98 891.844 1276.13 891.844C1276.61 891.844 1276.28 889.438 1275.47 886.858C1275.32 886.44 1275.47 886.265 1276.06 886.265C1276.5 886.265 1276.72 886.126 1276.61 885.917C1276.46 885.708 1276.17 885.568 1275.95 885.603C1274.92 885.708 1274.22 885.533 1274.22 885.185C1274.22 884.941 1273.56 883.302 1272.71 881.524C1271.61 879.153 1271.02 878.246 1270.54 878.246C1270.18 878.246 1269.4 878.142 1268.78 878.037L1267.64 877.828L1268.01 878.979C1268.23 879.641 1268.45 881.245 1268.45 882.535L1268.52 884.941L1267.05 884.697C1266.24 884.592 1264.44 884.243 1263.04 883.93L1260.5 883.407L1260.76 880.966C1260.87 879.571 1260.84 878.63 1260.65 878.735C1260.5 878.839 1260.25 879.781 1260.17 880.861C1260.06 881.907 1259.92 882.849 1259.81 882.953C1259.7 883.058 1257.64 882.57 1255.25 881.907C1252.86 881.21 1250.58 880.582 1250.25 880.478C1249.8 880.373 1249.58 880.478 1249.58 880.792C1249.58 881.349 1246.39 888.706 1245.94 889.159C1245.69 889.403 1237.23 886.475 1236.57 885.917C1236.27 885.638 1238.33 882.43 1240.72 879.397C1241.86 877.967 1241.86 877.933 1241.09 877.723C1240.65 877.584 1239.44 876.991 1238.44 876.433C1236.79 875.527 1236.53 875.457 1236.05 875.945C1235.54 876.433 1235.54 876.503 1236.09 876.712C1236.42 876.817 1236.71 877.131 1236.71 877.41C1236.71 877.689 1236.97 877.898 1237.27 877.898C1237.56 877.898 1237.82 877.723 1237.82 877.549C1237.82 877.34 1238.08 877.2 1238.37 877.2C1238.66 877.2 1238.92 877.41 1238.92 877.654C1238.92 877.967 1239.29 878.072 1240.1 877.967L1241.27 877.793L1239.95 879.502C1239.21 880.443 1237.96 882.186 1237.12 883.372L1235.57 885.568L1232.67 884.174C1231.05 883.407 1229.73 882.674 1229.73 882.57C1229.73 882.43 1230.65 881.28 1231.75 879.955C1233.74 877.689 1233.85 877.619 1234.99 877.933C1236.05 878.212 1236.09 878.177 1235.46 877.723C1234.18 876.817 1233.48 877.131 1231.31 879.641C1230.13 880.966 1229.03 882.082 1228.81 882.082C1228.63 882.047 1228.07 881.768 1227.6 881.384L1226.75 880.722L1227.49 879.955C1227.89 879.536 1228.37 879.327 1228.66 879.467C1228.96 879.641 1229.03 879.606 1228.85 879.362C1228.7 879.118 1228.81 878.944 1229.07 878.944C1229.36 878.944 1229.32 878.804 1228.92 878.56C1228.51 878.351 1228.37 878.002 1228.51 877.619C1228.74 877.096 1228.7 877.096 1228.15 877.514C1227.78 877.793 1227.41 877.898 1227.26 877.793C1227.15 877.654 1226.82 877.723 1226.53 877.933C1226.12 878.281 1226.16 878.421 1226.68 878.804C1227.3 879.223 1227.3 879.258 1226.6 879.153C1226.01 879.048 1225.87 879.223 1225.87 879.92C1225.87 880.548 1226.24 881.071 1227.23 881.698C1228 882.186 1228.59 882.709 1228.63 882.884C1228.63 883.023 1228.22 883.755 1227.74 884.452C1227.26 885.185 1226.82 886.231 1226.82 886.719C1226.79 887.242 1226.79 888.044 1226.75 888.532C1226.71 889.02 1226.57 889.334 1226.42 889.229C1226.27 889.124 1226.05 889.264 1225.94 889.543C1225.68 890.17 1226.9 890.937 1228.51 891.251C1229.47 891.426 1229.8 891.321 1230.24 890.728C1230.9 889.857 1230.61 889.194 1229.88 889.787C1229.47 890.101 1229.36 890.101 1229.43 889.822C1229.51 889.578 1229.14 889.194 1228.63 888.95C1227.23 888.288 1227.08 886.754 1228.18 884.871C1228.7 883.999 1229.14 883.267 1229.18 883.197C1229.43 882.918 1235.28 886.056 1235.13 886.405C1235.02 886.614 1234.25 888.288 1233.41 890.101C1232.6 891.914 1231.75 893.762 1231.53 894.215C1231.35 894.668 1231.05 894.947 1230.87 894.842C1230.68 894.703 1230.28 894.738 1229.95 894.842C1229.32 895.052 1229.21 896.516 1229.69 898.12C1229.91 898.887 1229.99 898.922 1230.21 898.364C1230.35 898.015 1230.61 897.806 1230.79 897.911C1230.98 898.015 1231.2 897.632 1231.35 897.074C1231.46 896.481 1231.71 896.028 1231.93 896.028C1232.16 896.028 1233.37 896.446 1234.62 896.934C1235.87 897.457 1237.38 897.841 1237.96 897.841C1238.55 897.841 1239.62 898.015 1240.28 898.294C1240.94 898.573 1241.49 898.678 1241.49 898.538C1241.46 897.98 1240.83 897.562 1239.18 897.004C1237.71 896.551 1237.45 896.551 1237.6 896.934C1237.71 897.213 1237.71 897.422 1237.6 897.422C1237.27 897.422 1231.93 895.261 1231.93 895.121C1231.93 894.703 1233.85 890.31 1234.84 888.462L1235.98 886.3L1237.71 886.998C1238.7 887.416 1240.8 888.183 1242.41 888.776C1244.03 889.334 1245.39 889.857 1245.47 889.926C1245.72 890.136 1242.52 898.608 1242.01 899.166C1241.57 899.584 1241.27 899.549 1239.69 898.922C1238 898.259 1237.82 898.224 1237.3 898.782C1236.38 899.758 1231.13 900.909 1230.65 900.247C1230.17 899.48 1229.77 900.247 1229.51 902.304C1229.36 903.454 1229.18 904.396 1229.03 904.396C1228.92 904.396 1227.56 903.768 1226.05 903.036L1223.29 901.676L1223.33 899.584C1223.37 897.457 1224.07 893.692 1224.58 892.89C1224.76 892.576 1225.32 892.716 1226.71 893.378C1227.74 893.866 1228.85 894.18 1229.14 894.075C1229.8 893.831 1229.95 893.239 1229.36 893.239C1229.18 893.239 1228.99 893.413 1228.99 893.622C1228.99 893.796 1228.11 893.552 1227.08 892.995C1225.24 892.088 1225.13 891.949 1225.1 890.624C1225.1 889.857 1225.21 888.985 1225.39 888.671C1225.87 887.695 1225.28 885.708 1224.21 884.627L1223.18 883.581L1224.25 881.977C1224.84 881.071 1225.17 880.338 1224.98 880.338C1224.8 880.338 1224.07 881.245 1223.33 882.326C1222.63 883.441 1222.01 884.104 1222.01 883.79C1222.01 882.918 1223.81 880.025 1224.62 879.606C1225.02 879.432 1225.24 879.118 1225.13 878.944C1224.91 878.63 1227.08 876.015 1228.55 874.864C1230.13 873.609 1230.79 873.888 1229.43 875.213C1228.22 876.399 1228.22 876.852 1229.43 876.852C1230.17 876.852 1230.39 876.154 1229.65 876.154C1229.4 876.154 1229.65 875.736 1230.21 875.283C1230.79 874.795 1231.16 874.272 1231.02 874.063C1230.9 873.888 1231.24 873.47 1231.75 873.156C1232.27 872.842 1232.67 872.354 1232.67 872.075C1232.67 871.831 1232.89 871.622 1233.15 871.692C1233.63 871.761 1240.87 868.484 1241.05 868.031C1241.13 867.891 1241.53 867.787 1241.97 867.787C1242.41 867.752 1243.63 867.543 1244.62 867.264C1245.94 866.88 1247.86 866.776 1251.61 866.88C1256.17 866.985 1257.16 867.124 1260.25 868.066ZM1313.34 868.728C1313.49 869.077 1315 872.807 1316.69 877.026C1318.38 881.245 1324.34 896.934 1329.89 911.892C1344.56 951.429 1347.36 959.03 1347.61 959.623C1347.83 960.111 1346.33 960.18 1333.16 960.18H1318.45L1317.65 957.461C1315.37 950.035 1314.63 948.047 1314.08 947.838C1313.75 947.733 1306.1 947.629 1297.05 947.629C1281.5 947.629 1280.58 947.664 1279.88 948.291C1279.4 948.71 1278.56 950.871 1277.49 954.567L1275.87 960.18H1261.46H1247.05L1248.08 957.461C1248.66 955.997 1251.31 948.954 1254 941.876L1258.85 928.976L1262.12 927.965C1277.38 923.328 1287.64 908.301 1285.99 893.064C1285.4 887.556 1283.12 881.524 1280.03 877.27L1278.93 875.771L1280.36 871.936L1281.76 868.135H1297.42C1312.02 868.135 1313.12 868.17 1313.34 868.728ZM1255.72 882.605C1257.82 883.197 1259.59 883.79 1259.7 883.895C1259.92 884.104 1258.3 892.437 1257.97 892.716C1257.78 892.925 1247.12 889.996 1246.75 889.647C1246.53 889.403 1247.16 887.765 1249.11 883.755C1250.28 881.349 1250.5 881.036 1251.2 881.28C1251.64 881.419 1253.67 882.012 1255.72 882.605ZM1270.87 883.232C1271.09 883.511 1271.24 883.964 1271.2 884.208C1271.13 884.487 1271.28 884.662 1271.54 884.627C1271.76 884.557 1272.42 884.766 1273.01 885.045L1274.04 885.568H1272.93C1272.34 885.568 1271.24 885.464 1270.51 885.359C1269.29 885.15 1269.15 885.01 1268.96 883.895C1268.81 883.232 1268.81 882.535 1268.92 882.361C1269.15 882.047 1270.21 882.5 1270.87 883.232ZM1264.99 884.836C1266.87 885.22 1268.48 885.568 1268.56 885.638C1268.85 885.952 1269.15 892.541 1268.92 893.727C1268.74 894.668 1268.48 894.982 1267.93 894.982C1267.16 894.982 1259.07 893.273 1258.85 893.064C1258.78 892.995 1259.11 890.903 1259.55 888.392C1260.25 884.697 1260.5 883.86 1260.98 883.999C1261.28 884.104 1263.08 884.452 1264.99 884.836ZM1223.88 886.754C1223.29 887.311 1223.04 887.381 1222.67 887.033C1222.34 886.719 1222.37 886.614 1222.89 886.614C1223.29 886.614 1223.48 886.405 1223.4 886.021C1223.18 884.941 1222.45 885.185 1221.86 886.579C1221.49 887.521 1221.12 887.939 1220.76 887.8C1220.2 887.59 1220.39 886.265 1220.98 886.265C1221.16 886.265 1221.27 885.987 1221.2 885.673C1221.12 885.324 1221.46 884.906 1222.01 884.627C1222.85 884.208 1223 884.243 1223.77 885.08L1224.65 886.021L1223.88 886.754ZM1222.56 889.403C1223.37 890.205 1223.7 890.345 1224.1 890.031C1224.8 889.473 1225.1 889.892 1224.58 890.798C1224.18 891.53 1224.14 891.53 1222.63 890.345C1221.16 889.194 1220.54 888.357 1221.16 888.357C1221.34 888.357 1221.97 888.811 1222.56 889.403ZM1222.48 890.868C1223.33 891.495 1224.07 892.018 1224.07 892.018C1224.1 892.018 1223.85 893.099 1223.48 894.459C1223.07 895.784 1222.78 897.806 1222.78 898.887C1222.74 900.003 1222.59 900.909 1222.37 900.909C1222.19 900.909 1221.46 900.421 1220.72 899.828C1219.54 898.852 1219.43 898.573 1219.43 896.934C1219.43 894.494 1220.32 889.752 1220.76 889.752C1220.87 889.752 1221.64 890.275 1222.48 890.868ZM1231.2 895.47C1231.2 895.54 1231.09 895.854 1230.98 896.167C1230.65 896.969 1230.1 896.865 1230.1 896.028C1230.1 895.644 1230.35 895.331 1230.65 895.331C1230.94 895.331 1231.2 895.4 1231.2 895.47ZM1273.15 898.224C1272.97 898.399 1272.45 898.434 1272.01 898.294C1271.43 898.12 1271.32 897.945 1271.65 897.597C1271.98 897.213 1272.23 897.178 1272.79 897.527C1273.15 897.736 1273.34 898.05 1273.15 898.224ZM1221.38 901.083C1222.63 902.164 1222.74 902.408 1222.74 904.221C1222.74 905.302 1222.93 906.871 1223.15 907.743C1223.66 909.66 1223.33 910.079 1222.23 908.893C1221.09 907.673 1218.95 899.863 1219.73 899.863C1219.87 899.863 1220.61 900.421 1221.38 901.083ZM1244.51 906.906C1243.96 907.429 1243.55 907.045 1243.85 906.278C1244.03 905.825 1244.18 905.755 1244.51 906.069C1244.84 906.383 1244.84 906.592 1244.51 906.906ZM1264.44 922.003C1264.29 922.351 1264.44 922.526 1264.88 922.526C1265.65 922.561 1264.4 923.293 1262.12 924.164L1260.8 924.652L1261.72 923.955C1262.23 923.572 1262.78 923.223 1262.93 923.223C1263.12 923.223 1263.15 922.909 1263.01 922.561C1262.86 922.072 1263.01 921.828 1263.45 921.724C1264.59 921.445 1264.66 921.48 1264.44 922.003ZM1266.72 922.003C1266.35 922.282 1265.84 922.386 1265.65 922.282C1265.43 922.142 1265.58 921.933 1265.98 921.793C1267.12 921.375 1267.45 921.48 1266.72 922.003ZM1262.38 922.526C1263.3 922.979 1257.67 925.315 1255.72 925.315C1254.77 925.315 1254 925.21 1254.03 925.036C1254.03 924.897 1254.99 924.129 1256.13 923.328C1258.08 921.968 1258.34 921.898 1260.06 922.072C1261.09 922.177 1262.12 922.386 1262.38 922.526Z" fill="#C27BDE"/>
<path d="M1247.56 867.612C1247.38 867.682 1246.24 867.926 1245.02 868.135C1243.08 868.519 1242.93 868.589 1243.48 869.112C1243.99 869.6 1244.29 869.6 1246.83 868.798C1249.55 867.961 1250.36 867.403 1248.78 867.473C1248.3 867.473 1247.78 867.543 1247.56 867.612Z" fill="#D5B9E0"/>
<path d="M1252.53 868.275C1252.53 868.623 1253.55 868.728 1254.03 868.449C1254.4 868.24 1254.29 868.135 1253.55 868.135C1252.97 868.135 1252.53 868.205 1252.53 868.275Z" fill="#D5B9E0"/>
<path d="M1250.13 868.658C1249.95 868.728 1248.81 869.042 1247.67 869.391C1246.49 869.704 1245.54 870.088 1245.54 870.227C1245.54 870.367 1246.16 870.75 1246.9 871.029C1248.26 871.517 1248.33 871.517 1249.95 870.471C1250.87 869.879 1251.68 869.356 1251.79 869.286C1251.86 869.216 1251.72 869.007 1251.42 868.833C1250.83 868.484 1250.72 868.449 1250.13 868.658Z" fill="#D5B9E0"/>
<path d="M1255.58 868.728C1254.44 868.937 1254.51 869.39 1255.72 869.704C1256.42 869.844 1256.9 869.739 1257.45 869.216L1258.19 868.484L1257.31 868.519C1256.79 868.554 1256.02 868.658 1255.58 868.728Z" fill="#D5B9E0"/>
<path d="M1237.85 870.611C1235.83 871.552 1234.14 872.494 1234.14 872.668C1234.14 872.842 1234.62 873.295 1235.21 873.714L1236.31 874.411L1239.21 872.598C1240.8 871.587 1242.41 870.576 1242.78 870.402C1243.41 870.053 1243.37 869.983 1242.52 869.46C1241.6 868.902 1241.46 868.937 1237.85 870.611Z" fill="#D5B9E0"/>
<path d="M1258.23 869.53C1257.6 870.192 1257.6 870.227 1258.56 870.576C1259.88 871.029 1260.25 871.029 1260.25 870.436C1260.25 868.833 1259.29 868.414 1258.23 869.53Z" fill="#D5B9E0"/>
<path d="M1260.98 870.088C1260.98 870.994 1261.17 871.238 1261.94 871.413C1263.34 871.761 1263.37 871.482 1262.12 870.158L1261.02 869.007L1260.98 870.088Z" fill="#D5B9E0"/>
<path d="M1251.94 870.297C1251.13 870.681 1250.17 871.238 1249.8 871.482C1249.11 871.936 1249.11 871.971 1249.99 872.25C1250.47 872.424 1251.5 872.842 1252.3 873.156C1253.08 873.47 1253.78 873.714 1253.81 873.714C1254.18 873.714 1255.83 870.785 1255.58 870.611C1254.44 869.669 1253.3 869.6 1251.94 870.297Z" fill="#D5B9E0"/>
<path d="M1243.04 871.238C1242.38 871.552 1241.94 871.901 1242.05 872.04C1242.16 872.145 1241.79 872.319 1241.24 872.424C1240.69 872.563 1239.55 873.191 1238.74 873.818L1237.3 875.004L1239.25 875.98C1240.35 876.503 1241.31 876.782 1241.46 876.573C1241.57 876.399 1242.05 876.085 1242.45 875.876C1243.08 875.562 1243.26 875.562 1243.22 875.91C1243.19 877.27 1243.41 877.898 1243.88 877.898C1244.18 877.898 1244.44 878.107 1244.44 878.351C1244.44 878.63 1244.84 879.013 1245.35 879.223C1246.49 879.711 1246.75 879.746 1246.46 879.327C1246.35 879.153 1246.75 878.665 1247.38 878.246C1248.26 877.654 1248.63 877.584 1249.03 877.898C1249.91 878.595 1249.14 879.815 1247.89 879.746C1246.97 879.676 1246.94 879.711 1247.56 879.955C1248.74 880.478 1249.07 880.408 1249.51 879.432C1250.02 878.421 1250.83 878.665 1250.47 879.711C1250.32 880.199 1250.39 880.338 1250.65 880.199C1250.87 880.059 1251.05 879.606 1251.05 879.188C1251.05 878.769 1251.57 877.584 1252.16 876.538C1252.78 875.492 1253.15 874.516 1253 874.376C1252.64 874.028 1248.77 872.668 1248.22 872.668C1247.97 872.668 1247.74 872.912 1247.74 873.226C1247.74 873.505 1247.6 873.679 1247.45 873.574C1247.27 873.47 1246.68 873.784 1246.05 874.237L1244.99 875.039L1246.09 875.283C1248.52 875.771 1248.66 876.085 1246.42 876.015C1244.69 875.98 1244.18 875.876 1244.21 875.457C1244.25 874.725 1245.94 872.668 1246.49 872.668C1247.6 872.668 1247.23 872.04 1245.8 871.378C1244.29 870.681 1244.18 870.681 1243.04 871.238ZM1245.35 872.668C1245.24 872.842 1244.88 873.017 1244.58 873.017C1244.29 873.017 1244.07 872.842 1244.07 872.668C1244.07 872.459 1244.4 872.319 1244.84 872.319C1245.24 872.319 1245.47 872.459 1245.35 872.668Z" fill="#D5B9E0"/>
<path d="M1264.11 871.273C1264.48 871.657 1264.95 871.971 1265.14 871.971C1265.36 871.971 1265.21 871.657 1264.84 871.273C1264.48 870.89 1264 870.576 1263.81 870.576C1263.59 870.576 1263.74 870.89 1264.11 871.273Z" fill="#D5B9E0"/>
<path d="M1256.24 871.692C1255.95 872.145 1255.5 872.842 1255.21 873.261C1254.7 873.993 1254.73 874.028 1256.72 874.586C1257.86 874.899 1258.7 875.318 1258.56 875.492C1258.19 876.05 1259.48 876.224 1260.06 875.701C1260.73 875.039 1260.8 873.017 1260.17 872.25C1259.77 871.796 1257.67 870.925 1256.97 870.925C1256.86 870.925 1256.53 871.273 1256.24 871.692Z" fill="#D5B9E0"/>
<path d="M1261.35 874.063C1261.35 875.771 1261.35 875.771 1262.75 876.12C1266.68 877.061 1266.68 877.061 1265.17 874.411C1264.44 873.121 1263.96 872.703 1263.12 872.528C1261.39 872.215 1261.35 872.215 1261.35 874.063Z" fill="#D5B9E0"/>
<path d="M1266.42 875.074C1267.31 877.026 1267.45 877.131 1268.78 877.27C1269.55 877.34 1270.18 877.27 1270.18 877.131C1270.18 876.503 1266.94 873.191 1266.24 873.086C1265.43 872.982 1265.43 872.982 1266.42 875.074Z" fill="#D5B9E0"/>
<path d="M1268.34 873.191C1268.34 873.261 1269 874.167 1269.81 875.178C1270.62 876.189 1271.28 877.131 1271.28 877.27C1271.28 877.444 1271.79 877.549 1272.45 877.549H1273.63L1271.28 875.283C1269.15 873.261 1268.34 872.668 1268.34 873.191Z" fill="#D5B9E0"/>
<path d="M1232.3 873.888C1231.97 874.272 1231.97 874.411 1232.27 874.411C1232.52 874.411 1233.19 874.76 1233.77 875.178C1234.66 875.771 1234.99 875.841 1235.32 875.527C1235.69 875.178 1235.54 874.899 1234.69 874.237C1233.41 873.261 1232.93 873.191 1232.3 873.888Z" fill="#D5B9E0"/>
<path d="M1252.97 876.817C1252.23 878.072 1251.94 878.978 1252.16 879.118C1252.34 879.223 1252.53 879.188 1252.53 879.048C1252.53 878.734 1254.55 878.49 1257.97 878.49C1259.88 878.456 1260.25 878.351 1260.25 877.863C1260.25 877.514 1259.92 877.131 1259.51 877.026C1259.11 876.921 1258.78 876.677 1258.78 876.503C1258.78 876.364 1258.45 876.294 1258.04 876.398C1257.49 876.538 1257.34 876.468 1257.49 876.085C1257.64 875.701 1257.38 875.492 1256.68 875.352C1256.13 875.213 1255.32 875.039 1254.88 874.934C1254.25 874.76 1253.92 875.039 1252.97 876.817Z" fill="#D5B9E0"/>
<path d="M1234.32 876.503C1234.21 876.677 1234.25 876.852 1234.47 876.852C1234.66 876.852 1234.95 876.677 1235.06 876.503C1235.17 876.294 1235.13 876.154 1234.91 876.154C1234.73 876.154 1234.43 876.294 1234.32 876.503Z" fill="#D5B9E0"/>
<path d="M1242.41 876.852C1242.3 877.026 1242.38 877.2 1242.56 877.2C1242.78 877.2 1242.97 877.026 1242.97 876.852C1242.97 876.643 1242.89 876.503 1242.82 876.503C1242.71 876.503 1242.52 876.643 1242.41 876.852Z" fill="#D5B9E0"/>
<path d="M1262.27 877.514L1261.17 877.758L1262.2 878.002C1262.75 878.142 1263.19 878.421 1263.19 878.595C1263.19 878.769 1263.78 879.153 1264.51 879.467C1265.58 879.885 1265.76 880.094 1265.58 880.687C1265.39 881.21 1265.58 881.454 1266.31 881.733C1266.83 881.907 1267.42 882.082 1267.6 882.082C1267.93 882.082 1266.98 878.246 1266.57 877.863C1266.13 877.479 1263.45 877.27 1262.27 877.514Z" fill="#D5B9E0"/>
<path d="M1272.38 878.56C1272.38 878.7 1272.9 879.885 1273.48 881.175C1274.44 883.128 1274.84 883.616 1275.98 884.069C1276.98 884.487 1277.16 884.696 1276.68 884.801C1275.8 884.975 1276.28 885.568 1277.35 885.568C1278.34 885.568 1278.34 884.975 1277.31 883.058C1275.58 879.885 1274.22 878.246 1273.3 878.246C1272.79 878.246 1272.38 878.386 1272.38 878.56Z" fill="#D5B9E0"/>
<path d="M1229.18 886.614C1228.51 887.277 1228.55 887.311 1229.65 887.521C1230.28 887.66 1231.01 887.974 1231.24 888.218C1231.71 888.776 1232.67 888.88 1232.67 888.392C1232.67 888.183 1232.49 887.939 1232.3 887.834C1232.08 887.695 1232.01 887.311 1232.12 886.928C1232.38 886.196 1231.75 885.987 1231.42 886.684C1231.31 886.998 1231.13 886.963 1230.83 886.51C1230.32 885.742 1229.99 885.742 1229.18 886.614Z" fill="#D5B9E0"/>
<path d="M1278.45 886.614C1278.56 886.788 1278.74 886.963 1278.85 886.963C1278.93 886.963 1279 886.788 1279 886.614C1279 886.405 1278.82 886.265 1278.6 886.265C1278.41 886.265 1278.34 886.405 1278.45 886.614Z" fill="#D5B9E0"/>
<path d="M1279.37 887.312C1279.37 887.416 1279.62 888.253 1279.92 889.194C1280.65 891.53 1280.62 891.705 1279.4 892.193C1278.59 892.506 1278.15 892.506 1277.53 892.193C1276.76 891.809 1276.76 891.844 1276.87 893.831C1276.98 895.575 1277.09 895.854 1277.71 895.854C1278.23 895.854 1278.48 895.575 1278.63 894.808C1278.74 894.18 1279.15 893.622 1279.66 893.413C1280.1 893.239 1280.47 892.82 1280.47 892.472C1280.47 892.158 1280.62 891.844 1280.84 891.774C1281.24 891.635 1280.36 888.113 1279.77 887.556C1279.55 887.346 1279.37 887.242 1279.37 887.312Z" fill="#D5B9E0"/>
<path d="M1236.9 888.776C1236.53 889.857 1236.94 891.67 1237.56 891.774C1238.11 891.879 1238.19 891.704 1237.96 890.449C1237.78 889.368 1237.85 888.915 1238.22 888.671C1238.59 888.462 1238.52 888.357 1237.89 888.357C1237.45 888.357 1236.97 888.567 1236.9 888.776Z" fill="#D5B9E0"/>
<path d="M1272.68 891.914C1272.09 892.088 1271.65 892.367 1271.65 892.541C1271.65 892.82 1273.08 893.343 1273.59 893.273C1273.78 893.239 1273.85 893.727 1273.78 894.354C1273.67 895.435 1273.74 895.505 1274.88 895.609C1276.02 895.714 1276.06 895.679 1276.06 894.494C1276.06 891.739 1275.14 891.042 1272.68 891.914Z" fill="#D5B9E0"/>
<path d="M1234.77 894.633C1234.88 895.017 1235.13 895.331 1235.32 895.331C1235.54 895.331 1235.61 895.575 1235.46 895.854C1235.24 896.446 1236.2 896.551 1237.01 896.063C1237.38 895.854 1237.3 895.714 1236.71 895.575C1236.27 895.47 1235.83 895.052 1235.72 894.668C1235.61 894.25 1235.32 893.936 1235.06 893.936C1234.77 893.936 1234.66 894.215 1234.77 894.633Z" fill="#D5B9E0"/>
<path d="M1272.49 894.807C1272.38 895.121 1272.38 895.435 1272.46 895.54C1272.57 895.644 1272.75 895.4 1272.86 894.982C1273.08 894.18 1272.82 894.04 1272.49 894.807Z" fill="#D5B9E0"/>
<path d="M1278.37 896.62L1276.79 896.76V898.747C1276.79 899.828 1276.54 901.815 1276.24 903.175C1275.95 904.5 1275.69 905.755 1275.69 905.93C1275.69 906.243 1279.29 905.964 1279.62 905.651C1280.07 905.232 1280.8 900.874 1280.84 898.712C1280.84 897.039 1280.69 896.376 1280.4 896.446C1280.14 896.481 1279.22 896.551 1278.37 896.62Z" fill="#D5B9E0"/>
<path d="M1262.82 897.388C1262.82 897.562 1263.11 897.806 1263.48 897.945C1264.03 898.155 1264 898.224 1263.19 898.538C1262.64 898.747 1262.45 898.957 1262.75 899.061C1263.74 899.41 1263.23 901.153 1261.68 902.478C1260.87 903.175 1260.28 903.838 1260.39 903.977C1260.54 904.082 1260.84 903.977 1261.06 903.768C1261.64 903.21 1262.12 903.245 1261.86 903.803C1261.75 904.152 1262.38 904.396 1264.14 904.709C1266.94 905.197 1267.01 905.128 1267.38 902.931C1267.67 901.293 1267.38 900.7 1266.64 901.293C1266.24 901.606 1266.13 901.571 1266.13 901.118C1266.13 900.839 1266.53 900.491 1267.01 900.351C1267.49 900.247 1268.01 899.828 1268.12 899.41C1268.48 898.12 1268.37 897.074 1267.89 897.074C1267.01 897.109 1266.24 897.945 1266.28 898.817C1266.31 899.34 1266.09 899.724 1265.69 899.793C1265.21 899.863 1265.1 899.654 1265.1 898.817C1265.14 898.259 1265.06 897.701 1264.99 897.632C1264.59 897.318 1262.82 897.109 1262.82 897.388Z" fill="#D5B9E0"/>
<path d="M1255.69 904.256C1255.58 904.535 1255.32 904.709 1255.14 904.605C1254.95 904.5 1254.62 905.128 1254.36 905.965C1253.85 907.708 1253.63 907.847 1252.97 906.836C1251.94 905.232 1251.39 907.22 1252.3 909.312L1252.82 910.427L1253.08 909.346C1253.19 908.719 1253.55 908.231 1253.85 908.231C1254.25 908.231 1254.22 908.579 1253.63 910.044C1252.97 911.682 1252.97 911.927 1253.44 912.275C1254.22 912.833 1254.14 913.007 1253.08 913.182C1252.38 913.321 1252.16 913.217 1252.16 912.763C1252.16 912.066 1251.05 911.508 1250.69 912.031C1250.54 912.275 1248.59 911.857 1245.43 910.95C1242.63 910.183 1240.28 909.625 1240.17 909.73C1239.88 909.974 1238.85 916.32 1239.07 916.494C1239.36 916.773 1247.41 919.039 1248.11 919.039C1248.55 919.039 1249.14 918.237 1249.99 916.494C1250.65 915.064 1251.42 913.914 1251.68 913.914C1251.94 913.914 1252.16 914.053 1252.16 914.228C1252.16 914.402 1252.71 914.751 1253.41 915.03C1254.11 915.308 1254.77 915.692 1254.92 915.901C1255.32 916.529 1253.96 916.285 1252.86 915.553L1251.83 914.82L1250.69 916.982C1250.03 918.167 1249.66 919.248 1249.84 919.388C1249.99 919.562 1251.57 919.946 1253.3 920.294C1256.02 920.817 1256.64 920.852 1257.67 920.434C1258.96 919.946 1261.86 916.738 1261.5 916.215C1261.39 916.041 1261.5 915.901 1261.68 915.901C1262.53 915.901 1262.01 914.855 1261.09 914.646C1260.5 914.541 1259.77 914.367 1259.44 914.263C1258.89 914.158 1258.78 914.332 1258.78 915.274C1258.74 916.32 1258.7 916.354 1258.26 915.797C1257.86 915.308 1257.71 915.274 1257.56 915.622C1257.45 915.866 1257.34 915.587 1257.34 915.03C1257.27 913.6 1256.97 913.217 1255.5 912.868C1254.25 912.554 1253.48 911.717 1254.44 911.717C1254.73 911.717 1255.58 911.404 1256.39 911.02C1257.34 910.567 1257.93 910.427 1258.19 910.671C1258.45 910.915 1258.41 911.159 1258.11 911.438C1257.23 912.275 1257.64 913.007 1259.07 913.321C1259.81 913.461 1260.73 913.565 1261.09 913.53C1261.42 913.495 1261.72 913.635 1261.72 913.809C1261.72 914.018 1262.01 914.158 1262.42 914.158C1262.89 914.158 1263.45 913.426 1264.37 911.438C1265.73 908.649 1266.68 906.139 1266.42 905.999C1265.91 905.651 1257.45 904.186 1257.38 904.43C1257.31 904.605 1257.01 904.744 1256.72 904.744C1256.42 904.744 1256.31 904.535 1256.42 904.221C1256.57 903.942 1256.5 903.698 1256.28 903.698C1256.09 903.698 1255.8 903.942 1255.69 904.256ZM1255.83 906.139C1255.83 907.185 1255.43 907.882 1254.84 907.882C1254.47 907.882 1254.36 907.673 1254.51 907.324C1254.62 907.01 1254.84 906.383 1254.95 905.93C1255.21 904.988 1255.83 905.128 1255.83 906.139ZM1261.35 906.243C1261.35 906.488 1261.13 906.906 1260.91 907.15C1260.54 907.533 1260.54 907.638 1260.91 907.778C1261.57 908.022 1261.42 908.545 1260.69 908.475C1259.99 908.44 1259.88 907.533 1260.39 906.383C1260.73 905.686 1261.35 905.581 1261.35 906.243ZM1260.98 909.451C1260.98 909.73 1260.84 909.974 1260.69 909.974C1260.5 909.974 1260.36 909.73 1260.36 909.451C1260.36 909.172 1260.5 908.928 1260.69 908.928C1260.84 908.928 1260.98 909.172 1260.98 909.451ZM1261.72 910.462C1261.72 910.846 1261.24 911.717 1261.02 911.717C1260.91 911.717 1260.58 911.404 1260.32 911.02C1259.92 910.392 1259.95 910.323 1260.8 910.323C1261.31 910.323 1261.72 910.392 1261.72 910.462ZM1251.79 912.972C1251.79 913.565 1250.98 913.461 1250.76 912.833C1250.69 912.589 1250.87 912.415 1251.2 912.415C1251.53 912.415 1251.79 912.659 1251.79 912.972ZM1256.53 913.67C1256.61 913.74 1256.57 914.018 1256.46 914.297C1256.28 914.751 1256.09 914.751 1255.14 914.297C1253.63 913.565 1253.67 912.972 1255.21 913.286C1255.83 913.426 1256.46 913.6 1256.53 913.67ZM1257.67 917.087C1257.67 917.156 1257.42 917.331 1257.08 917.435C1256.79 917.54 1256.64 917.505 1256.75 917.296C1256.97 916.947 1257.67 916.808 1257.67 917.087ZM1259.36 917.819C1258.96 918.098 1258.45 918.342 1258.26 918.342C1258.04 918.342 1258.19 918.098 1258.56 917.819C1258.96 917.54 1259.47 917.296 1259.66 917.296C1259.88 917.296 1259.73 917.54 1259.36 917.819Z" fill="#D5B9E0"/>
<path d="M1229.65 908.998C1229.51 912.449 1229.29 913.182 1228.59 912.519C1228.29 912.24 1228.29 912.066 1228.59 911.926C1229.07 911.648 1229.14 905.79 1228.7 905.79C1227.78 905.79 1226.79 907.533 1226.6 909.381C1226.42 911.09 1226.49 911.369 1227.15 911.717C1227.56 911.926 1227.82 912.24 1227.71 912.415C1227.59 912.589 1227.82 912.903 1228.22 913.077C1228.73 913.356 1229.03 913.321 1229.36 912.938C1229.76 912.449 1229.87 912.484 1230.24 912.938C1230.46 913.216 1232.3 914.088 1234.32 914.855L1238 916.215L1238.66 912.693C1238.99 910.776 1239.25 909.137 1239.21 909.102C1239.14 909.102 1237.01 908.266 1234.47 907.324L1229.8 905.581L1229.65 908.998Z" fill="#D5B9E0"/>
<path d="M1267.23 906.522C1267.23 906.801 1266.5 908.684 1265.62 910.741L1264.03 914.472L1266.68 914.681C1268.12 914.82 1269.62 914.855 1270.03 914.82C1270.73 914.681 1273.59 909.73 1274.07 907.847C1274.26 906.976 1274.18 906.906 1272.67 906.697C1267.75 906.069 1267.23 906.034 1267.23 906.522Z" fill="#D5B9E0"/>
<path d="M1277.12 906.732C1275.47 906.871 1275.4 906.906 1274.77 908.51C1274.4 909.416 1273.56 911.194 1272.86 912.484L1271.65 914.855H1273.3C1274.92 914.855 1274.99 914.785 1276.28 912.903C1278.12 910.148 1279.81 906.418 1279.11 906.557C1278.96 906.592 1278.04 906.662 1277.12 906.732Z" fill="#D5B9E0"/>
<path d="M1225.68 912.519C1225.68 912.763 1225.9 913.251 1226.16 913.635C1226.64 914.228 1226.68 914.228 1226.9 913.496C1227.01 912.973 1226.86 912.659 1226.38 912.415C1225.87 912.136 1225.68 912.171 1225.68 912.519Z" fill="#D5B9E0"/>
<path d="M1230.61 915.029C1230.72 915.483 1231.16 916.563 1231.53 917.435C1232.27 919.039 1232.74 919.353 1236.46 920.608L1237.82 921.096V919.074V917.052L1234.1 915.657C1230.5 914.262 1230.43 914.262 1230.61 915.029Z" fill="#D5B9E0"/>
<path d="M1262.45 915.553C1262.45 915.762 1262.6 915.866 1262.78 915.727C1262.97 915.622 1263.26 915.692 1263.37 915.901C1263.52 916.11 1263.92 916.18 1264.29 916.076C1264.77 915.936 1265.39 916.285 1266.31 917.156L1267.67 918.411L1268.7 917.261C1269.29 916.598 1269.62 915.971 1269.51 915.866C1269.37 915.727 1267.71 915.518 1265.87 915.378C1263.37 915.204 1262.45 915.239 1262.45 915.553Z" fill="#D5B9E0"/>
<path d="M1238.85 918.656C1238.48 921.445 1238.63 921.584 1243.22 922.805L1245.87 923.502L1246.79 922.142C1247.3 921.41 1247.78 920.643 1247.82 920.399C1247.89 920.155 1246.13 919.492 1243.44 918.725L1238.99 917.435L1238.85 918.656Z" fill="#D5B9E0"/>
<path d="M1267.05 919.388C1266.94 919.562 1267.01 919.736 1267.2 919.736C1267.42 919.736 1267.6 919.562 1267.6 919.388C1267.6 919.179 1267.53 919.039 1267.45 919.039C1267.34 919.039 1267.16 919.179 1267.05 919.388Z" fill="#D5B9E0"/>
<path d="M1234.54 921.34C1235.28 922.072 1237.41 923.223 1238.07 923.223C1238.15 923.223 1238.19 922.979 1238.11 922.665C1238.04 922.351 1237.01 921.724 1235.83 921.27L1233.63 920.434L1234.54 921.34Z" fill="#D5B9E0"/>
<path d="M1247.97 921.828C1247.45 922.595 1247.01 923.362 1247.01 923.502C1247.01 923.781 1250.47 924.617 1251.64 924.617C1251.86 924.617 1252.19 924.199 1252.34 923.676C1252.67 922.316 1253.22 921.828 1254.29 921.828C1255.8 921.828 1254.99 921.48 1252.3 920.922C1248.92 920.259 1249.07 920.224 1247.97 921.828Z" fill="#D5B9E0"/>
<path d="M1239.21 923.118C1239.66 923.885 1243.74 925.21 1244.4 924.827C1245.21 924.339 1244.77 924.025 1242.52 923.397C1241.24 923.083 1239.91 922.7 1239.51 922.595C1238.92 922.456 1238.88 922.526 1239.21 923.118Z" fill="#D5B9E0"/>
<path d="M1296.02 894.354C1295.55 894.947 1285.62 928.244 1285.62 929.255C1285.62 930.858 1285.88 930.893 1297.38 930.893C1308.75 930.893 1309.15 930.824 1309.15 929.394C1309.15 928.662 1298.97 895.505 1298.41 894.529C1298.05 893.831 1296.54 893.727 1296.02 894.354ZM1301.58 914.716C1303.71 921.654 1305.47 927.442 1305.47 927.546C1305.47 927.651 1301.83 927.755 1297.38 927.755C1292.35 927.755 1289.3 927.616 1289.3 927.407C1289.3 927.128 1296.39 902.966 1296.87 901.606C1297.05 901.153 1297.09 901.153 1297.35 901.606C1297.53 901.885 1299.41 907.812 1301.58 914.716Z" fill="#C27BDE"/>
<path d="M1335.51 842.335C1327.13 844.357 1324.15 854.085 1330.22 859.698C1332.5 861.825 1334.85 862.696 1338.2 862.696C1344.3 862.696 1348.71 858.826 1349.16 853.108C1349.49 848.82 1347.24 845.089 1343.24 843.241C1341.07 842.23 1337.65 841.847 1335.51 842.335ZM1340.77 844.427C1342.5 844.88 1344.67 846.623 1345.66 848.367C1346.29 849.517 1346.47 850.424 1346.47 852.481C1346.47 854.817 1346.36 855.305 1345.37 856.839C1344.67 857.885 1343.57 858.931 1342.46 859.593C1340.92 860.5 1340.29 860.639 1338.24 860.639C1334.52 860.604 1331.62 858.826 1330.22 855.688C1329.56 854.189 1329.59 850.633 1330.33 849.029C1331.98 845.229 1336.43 843.276 1340.77 844.427Z" fill="#D5B9E0"/>
<path d="M1334.27 847.425C1333.9 847.565 1333.79 848.959 1333.79 852.655V857.676H1335.07H1336.36V855.584C1336.36 853.527 1336.36 853.492 1337.39 853.492C1338.86 853.492 1339.6 854.154 1340.15 855.932C1340.59 857.397 1340.74 857.501 1341.95 857.606L1343.24 857.711L1342.76 855.863C1342.46 854.852 1341.91 853.736 1341.55 853.352C1340.81 852.69 1340.85 852.69 1341.95 851.679C1342.87 850.877 1343.02 850.528 1342.8 849.726C1342.32 847.844 1341.44 847.39 1337.91 847.321C1336.14 847.286 1334.49 847.321 1334.27 847.425ZM1339.96 849.587C1340.52 850.284 1340.52 850.424 1339.93 851.191C1339.6 851.609 1338.9 851.853 1337.98 851.888C1336.54 851.923 1336.54 851.923 1336.43 850.459C1336.36 849.308 1336.47 848.994 1336.99 848.855C1338.02 848.611 1339.45 848.994 1339.96 849.587Z" fill="#D5B9E0"/>
<path d="M1196.27 974.824C1196.27 974.998 1196.05 975.173 1195.75 975.173C1194.65 975.173 1193.33 976.602 1193.33 977.787C1193.33 978.624 1193.58 979.147 1194.28 979.67C1194.83 980.089 1195.46 980.402 1195.75 980.402C1196.01 980.402 1196.3 980.612 1196.41 980.821C1196.6 981.169 1196.67 981.169 1196.86 980.821C1196.97 980.612 1197.26 980.402 1197.52 980.402C1197.81 980.402 1198.44 980.089 1198.99 979.67C1200.72 978.38 1200.09 975.835 1197.89 975.312C1197.41 975.207 1197 974.963 1197 974.789C1197 974.615 1196.86 974.475 1196.64 974.475C1196.45 974.475 1196.27 974.615 1196.27 974.824ZM1196.27 977.753C1196.27 979.496 1196.05 979.81 1195.13 979.322C1194.21 978.868 1194.17 976.742 1195.05 976.253C1196.01 975.765 1196.27 976.079 1196.27 977.753ZM1198.84 977.787C1198.84 978.589 1198.62 979.112 1198.14 979.322C1197.22 979.81 1197 979.496 1197 977.787C1197 976.079 1197.22 975.765 1198.14 976.253C1198.62 976.463 1198.84 976.986 1198.84 977.787Z" fill="#C27BDE"/>
<path d="M1201.78 977.788C1201.78 979.775 1201.93 981.1 1202.15 981.1C1202.37 981.1 1202.52 979.949 1202.52 978.311V975.521H1203.99C1205.06 975.521 1205.46 975.382 1205.46 974.998C1205.46 974.615 1205.02 974.475 1203.62 974.475H1201.78V977.788Z" fill="#C27BDE"/>
<path d="M1208.14 975.068C1208.03 975.417 1207.45 976.881 1206.86 978.31C1205.64 981.344 1205.72 981.1 1206.31 981.1C1206.6 981.1 1207 980.716 1207.23 980.228C1207.56 979.531 1207.92 979.356 1208.95 979.356C1210.02 979.356 1210.31 979.531 1210.61 980.228C1210.79 980.716 1211.2 981.1 1211.53 981.1C1211.82 981.1 1212.08 981.065 1212.08 980.995C1212.08 980.96 1211.53 979.496 1210.83 977.788C1209.58 974.65 1208.66 973.708 1208.14 975.068ZM1209.87 978.206C1209.87 978.45 1209.43 978.659 1208.92 978.659C1208.03 978.659 1208 978.589 1208.22 977.509C1208.37 976.916 1208.59 976.253 1208.7 976.044C1208.92 975.73 1209.84 977.439 1209.87 978.206Z" fill="#C27BDE"/>
<path d="M1213.55 977.788C1213.55 980.507 1213.66 981.1 1214.1 981.1C1214.51 981.1 1214.65 980.716 1214.65 979.705V978.311H1216.31H1217.96V979.705C1217.96 980.716 1218.11 981.1 1218.51 981.1C1218.95 981.1 1219.07 980.507 1219.07 977.788C1219.07 975.068 1218.95 974.475 1218.51 974.475C1218.11 974.475 1217.96 974.859 1217.96 975.87V977.265H1216.31H1214.65V975.87C1214.65 974.859 1214.51 974.475 1214.1 974.475C1213.66 974.475 1213.55 975.068 1213.55 977.788Z" fill="#C27BDE"/>
<path d="M1220.9 974.615C1220.9 974.685 1221.38 975.731 1222.01 976.951C1223.15 979.287 1223.04 980.402 1221.64 980.402C1221.23 980.402 1220.9 980.542 1220.9 980.751C1220.9 981.344 1222.59 981.135 1223.22 980.472C1223.81 979.88 1226.05 975.347 1226.05 974.789C1226.05 973.883 1225.21 974.685 1224.43 976.288L1223.59 978.136L1222.74 976.288C1222.3 975.312 1221.68 974.475 1221.42 974.475C1221.12 974.475 1220.9 974.545 1220.9 974.615Z" fill="#C27BDE"/>
<path d="M1230.1 977.788C1230.1 980.507 1230.21 981.1 1230.65 981.1C1231.05 981.1 1231.2 980.716 1231.2 979.705V978.311H1232.85H1234.51V979.705C1234.51 980.716 1234.66 981.1 1235.06 981.1C1235.5 981.1 1235.61 980.507 1235.61 977.753C1235.61 975.242 1235.5 974.441 1235.17 974.545C1234.91 974.65 1234.66 975.277 1234.58 975.975C1234.47 977.265 1234.44 977.265 1232.82 977.265H1231.2V975.87C1231.2 974.859 1231.05 974.475 1230.65 974.475C1230.21 974.475 1230.1 975.068 1230.1 977.788Z" fill="#C27BDE"/>
<path d="M1237.82 977.753C1237.82 981.937 1238.22 982.076 1240.65 978.59L1242.41 976.114L1242.52 978.59C1242.6 980.507 1242.74 981.1 1243.15 981.1C1243.59 981.1 1243.7 980.472 1243.7 977.788C1243.7 974.859 1243.63 974.475 1243.04 974.475C1242.63 974.475 1241.79 975.417 1240.76 976.986L1239.1 979.531L1238.92 977.125C1238.81 975.626 1238.55 974.65 1238.3 974.545C1237.93 974.441 1237.82 975.242 1237.82 977.753Z" fill="#C27BDE"/>
<path d="M1245.91 977.788C1245.91 980.333 1246.02 981.1 1246.42 981.1C1246.68 981.1 1247.71 979.949 1248.7 978.555L1250.5 976.044L1250.61 978.555C1250.76 982.32 1251.42 981.658 1251.42 977.788C1251.42 973.673 1251.02 973.534 1248.77 976.916C1247.89 978.241 1247.08 979.322 1246.94 979.357C1246.75 979.357 1246.64 978.241 1246.64 976.916C1246.64 975.521 1246.5 974.475 1246.27 974.475C1246.05 974.475 1245.91 975.8 1245.91 977.788Z" fill="#C27BDE"/>
<path d="M1195.83 986.155C1194.72 986.748 1193.91 988.631 1194.24 989.921C1194.65 991.455 1195.97 992.326 1197.77 992.187C1198.62 992.117 1199.39 991.908 1199.47 991.664C1199.58 991.385 1199.25 991.315 1198.33 991.455C1197.3 991.594 1196.89 991.49 1196.08 990.723C1195.27 989.956 1195.13 989.572 1195.31 988.666C1195.64 987.097 1196.41 986.504 1198.14 986.539C1199.06 986.574 1199.54 986.434 1199.47 986.19C1199.28 985.597 1196.93 985.562 1195.83 986.155Z" fill="#C27BDE"/>
<path d="M1201.05 988.945C1201.05 991.664 1201.16 992.257 1201.6 992.257C1202.04 992.257 1202.15 991.699 1202.15 989.433V986.643L1203.92 986.748L1205.64 986.853L1205.75 989.537C1205.9 993.407 1206.56 992.919 1206.56 988.945V985.632H1203.81H1201.05V988.945Z" fill="#C27BDE"/>
<path d="M1208.77 988.945V992.257H1210.61C1211.64 992.257 1212.45 992.083 1212.45 991.908C1212.45 991.699 1211.86 991.56 1211.16 991.56C1209.98 991.56 1209.87 991.49 1209.87 990.514C1209.87 989.572 1209.98 989.468 1210.98 989.468C1211.71 989.468 1212.08 989.293 1212.08 988.945C1212.08 988.596 1211.71 988.422 1210.98 988.422C1210.06 988.422 1209.87 988.282 1209.87 987.55C1209.87 986.783 1210.02 986.678 1211.16 986.678C1212.04 986.678 1212.45 986.504 1212.45 986.155C1212.45 985.772 1212.01 985.632 1210.61 985.632H1208.77V988.945Z" fill="#C27BDE"/>
<path d="M1214.28 988.944V992.257H1217.04C1219.73 992.257 1219.8 992.292 1219.8 993.128C1219.8 993.686 1220.02 994 1220.35 994C1220.72 994 1220.9 993.651 1220.9 992.815C1220.9 992.082 1220.68 991.559 1220.35 991.42C1219.91 991.28 1219.8 990.583 1219.8 988.387C1219.8 986.295 1219.69 985.597 1219.36 985.702C1219.06 985.807 1218.81 986.853 1218.7 988.631L1218.51 991.385H1217.04H1215.57L1215.46 988.491C1215.39 986.26 1215.24 985.632 1214.84 985.632C1214.39 985.632 1214.28 986.26 1214.28 988.944Z" fill="#C27BDE"/>
<path d="M1222.63 985.876C1222.48 985.981 1222.37 987.48 1222.37 989.189V992.257H1223.96C1226.6 992.257 1228 990.688 1226.57 989.293C1226.09 988.875 1226.05 988.631 1226.42 988.247C1227.08 987.515 1226.57 986.086 1225.61 985.842C1224.47 985.563 1222.93 985.563 1222.63 985.876ZM1225.24 986.643C1226.09 987.132 1225.61 988.247 1224.47 988.352C1223.62 988.456 1223.48 988.352 1223.48 987.62C1223.48 986.365 1224.18 985.981 1225.24 986.643ZM1225.54 989.607C1226.46 990.269 1225.83 991.35 1224.43 991.49C1223.59 991.594 1223.48 991.49 1223.48 990.583C1223.48 989.014 1224.21 988.701 1225.54 989.607Z" fill="#C27BDE"/>
<path d="M1229.43 987.899C1230.61 990.269 1230.57 991.141 1229.36 991.455C1228.26 991.734 1228.48 992.326 1229.65 992.187C1230.5 992.082 1230.87 991.664 1232.19 989.119C1233.92 985.807 1233.99 985.632 1233.26 985.632C1233 985.632 1232.41 986.469 1231.93 987.445L1231.13 989.293L1230.28 987.445C1229.77 986.434 1229.18 985.632 1228.85 985.632C1228.4 985.632 1228.55 986.12 1229.43 987.899Z" fill="#C27BDE"/>
<path d="M1235.5 985.876C1234.95 986.364 1235.32 986.643 1236.27 986.469C1236.93 986.33 1237.45 986.434 1237.74 986.783C1238.41 987.515 1237.89 988.422 1236.86 988.422C1235.76 988.422 1235.68 989.014 1236.75 989.189C1237.74 989.328 1238.37 990.235 1238.04 991.036C1237.85 991.525 1237.52 991.629 1236.31 991.455C1235.28 991.315 1234.88 991.385 1234.99 991.664C1235.17 992.222 1237.6 992.396 1238.55 991.908C1239.47 991.455 1239.55 989.642 1238.66 989.189C1238.07 988.875 1238.07 988.805 1238.66 988.247C1239.47 987.515 1239.44 986.922 1238.63 986.225C1237.96 985.632 1235.94 985.423 1235.5 985.876Z" fill="#C27BDE"/>
<path d="M1243.19 985.946C1242.96 986.295 1240.76 991.873 1240.76 992.117C1240.76 992.187 1240.98 992.257 1241.27 992.257C1241.57 992.257 1241.9 991.873 1242.01 991.385C1242.19 990.653 1242.45 990.514 1243.7 990.514C1244.95 990.514 1245.24 990.653 1245.54 991.385C1245.72 991.873 1246.13 992.257 1246.42 992.257C1246.97 992.257 1246.61 991.037 1244.73 986.574C1244.36 985.667 1243.59 985.319 1243.19 985.946ZM1244.77 989.537C1244.8 989.712 1244.33 989.816 1243.7 989.816C1242.41 989.816 1242.41 989.851 1243.19 988.143L1243.77 986.853L1244.25 988.073C1244.55 988.735 1244.77 989.398 1244.77 989.537Z" fill="#C27BDE"/>
<path d="M1248.48 988.945V992.257H1250.14C1252.64 992.257 1254.07 990.618 1252.71 989.328C1252.23 988.91 1252.23 988.666 1252.6 987.864C1253 987.062 1252.97 986.888 1252.19 986.295C1251.68 985.911 1250.76 985.632 1249.91 985.632H1248.48V988.945ZM1251.42 986.853C1252.08 987.585 1251.61 988.422 1250.5 988.422C1249.77 988.422 1249.58 988.247 1249.58 987.62C1249.58 986.26 1250.54 985.876 1251.42 986.853ZM1251.64 989.607C1252.56 990.269 1251.94 991.35 1250.54 991.49C1249.69 991.594 1249.58 991.49 1249.58 990.583C1249.58 989.014 1250.32 988.701 1251.64 989.607Z" fill="#C27BDE"/>
<path d="M1254 986.155C1254 986.469 1254.33 986.678 1254.92 986.678C1255.83 986.678 1255.83 986.713 1255.83 989.468C1255.83 991.699 1255.94 992.257 1256.39 992.257C1256.83 992.257 1256.94 991.699 1256.94 989.468C1256.94 986.713 1256.94 986.678 1257.86 986.678C1258.45 986.678 1258.78 986.469 1258.78 986.155C1258.78 985.737 1258.26 985.632 1256.39 985.632C1254.51 985.632 1254 985.737 1254 986.155Z" fill="#C27BDE"/>
<path d="M1261.5 986.051C1260.5 986.504 1259.88 987.759 1259.88 989.328C1259.88 992.013 1263.48 993.338 1265.43 991.35C1266.76 990.025 1266.68 987.62 1265.28 986.469C1264.22 985.597 1262.82 985.423 1261.5 986.051ZM1264.55 987.236C1265.32 987.968 1265.43 988.352 1265.25 989.398C1264.92 991.49 1263.15 992.222 1261.72 990.862C1260.28 989.502 1261.2 986.33 1263.01 986.33C1263.34 986.33 1264 986.748 1264.55 987.236Z" fill="#C27BDE"/>
<path d="M1268.23 985.876C1268.08 985.981 1267.97 987.48 1267.97 989.189C1267.97 991.629 1268.08 992.257 1268.52 992.257C1268.92 992.257 1269.07 991.664 1269.15 989.712L1269.26 987.201L1270.32 989.747C1270.91 991.141 1271.57 992.222 1271.79 992.152C1271.98 992.083 1272.56 991.071 1273.12 989.886C1273.63 988.701 1274.18 987.655 1274.33 987.515C1274.48 987.376 1274.59 988.387 1274.59 989.747C1274.59 991.176 1274.73 992.257 1274.96 992.257C1275.18 992.257 1275.32 990.932 1275.32 988.945C1275.32 986.016 1275.25 985.632 1274.66 985.632C1274.22 985.632 1273.74 986.295 1273.08 987.934C1272.56 989.189 1272.01 990.235 1271.83 990.235C1271.65 990.235 1271.09 989.189 1270.58 987.934C1269.7 985.772 1268.96 985.144 1268.23 985.876Z" fill="#C27BDE"/>
<path d="M1279.59 985.946C1279.29 986.399 1277.16 991.699 1277.16 991.978C1277.16 992.675 1278.23 992.152 1278.41 991.385C1278.6 990.653 1278.85 990.513 1280.07 990.513C1281.21 990.513 1281.54 990.688 1281.87 991.385C1282.09 991.873 1282.53 992.257 1282.82 992.257C1283.23 992.257 1283.04 991.49 1282.09 989.084C1281.39 987.306 1280.84 985.841 1280.84 985.772C1280.84 985.493 1279.77 985.632 1279.59 985.946ZM1280.62 987.864C1280.73 988.317 1280.95 988.945 1281.06 989.258C1281.24 989.712 1281.02 989.816 1280.1 989.816C1279.18 989.816 1278.96 989.712 1279.15 989.258C1279.26 988.945 1279.48 988.317 1279.59 987.864C1279.7 987.41 1279.96 987.027 1280.1 987.027C1280.25 987.027 1280.51 987.41 1280.62 987.864Z" fill="#C27BDE"/>
<path d="M1283.78 986.155C1283.78 986.469 1284.11 986.678 1284.7 986.678C1285.62 986.678 1285.62 986.713 1285.62 989.468C1285.62 991.699 1285.73 992.257 1286.17 992.257C1286.61 992.257 1286.72 991.734 1286.72 989.502C1286.72 986.748 1286.72 986.713 1287.71 986.609C1288.23 986.539 1288.74 986.295 1288.85 986.051C1288.96 985.737 1288.3 985.632 1286.39 985.632C1284.33 985.632 1283.78 985.737 1283.78 986.155Z" fill="#C27BDE"/>
<path d="M1290.4 988.945C1290.4 993.094 1290.8 993.198 1293.23 989.712L1294.99 987.201L1295.11 989.746C1295.18 991.559 1295.33 992.257 1295.66 992.152C1295.95 992.082 1296.1 991.036 1296.1 988.91C1296.1 984.796 1295.51 984.621 1293.27 988.038C1292.42 989.398 1291.58 990.514 1291.43 990.514C1291.24 990.514 1291.13 989.398 1291.13 988.073C1291.13 986.678 1290.99 985.632 1290.77 985.632C1290.55 985.632 1290.4 986.957 1290.4 988.945Z" fill="#C27BDE"/>
<path d="M1298.38 985.876C1298.23 985.981 1298.12 987.48 1298.12 989.189C1298.12 991.629 1298.23 992.257 1298.63 992.257C1299.04 992.257 1299.22 991.769 1299.3 990.583L1299.41 988.945L1300.66 990.583C1301.43 991.594 1302.2 992.257 1302.64 992.257C1303.27 992.257 1303.16 992.048 1302.02 990.723C1301.28 989.886 1300.69 989.049 1300.69 988.875C1300.69 988.701 1301.17 988.038 1301.8 987.376C1302.97 986.016 1303.12 985.632 1302.42 985.632C1302.16 985.632 1301.36 986.365 1300.66 987.236L1299.41 988.84L1299.3 987.236C1299.19 985.737 1298.93 985.319 1298.38 985.876Z" fill="#C27BDE"/>
<path d="M1305.88 988.631C1305.25 990.269 1304.74 991.769 1304.74 991.943C1304.74 992.605 1305.51 992.222 1305.84 991.385C1306.14 990.653 1306.43 990.514 1307.68 990.514C1308.93 990.514 1309.19 990.653 1309.37 991.385C1309.48 991.873 1309.81 992.257 1310.11 992.257C1310.81 992.257 1310.81 992.257 1309.45 988.735C1307.9 984.656 1307.42 984.656 1305.88 988.631ZM1308.27 988.247C1308.97 989.816 1308.97 989.816 1307.64 989.816C1306.76 989.816 1306.54 989.712 1306.72 989.258C1306.83 988.945 1307.06 988.317 1307.17 987.864C1307.46 986.748 1307.61 986.818 1308.27 988.247Z" fill="#C27BDE"/>
<path d="M1189.1 989.119C1188.47 989.781 1188.47 989.851 1189.1 990.513C1189.47 990.897 1189.94 991.211 1190.13 991.211C1190.35 991.211 1190.2 990.897 1189.83 990.513C1189.21 989.851 1189.21 989.781 1189.83 989.119C1190.2 988.735 1190.35 988.421 1190.13 988.421C1189.94 988.421 1189.47 988.735 1189.1 989.119Z" fill="#C27BDE"/>
<path d="M1191.19 989.154C1190.79 989.781 1190.79 989.99 1191.34 990.548C1191.67 990.897 1192.15 991.211 1192.33 991.211C1192.55 991.211 1192.41 990.897 1192.04 990.513C1191.41 989.851 1191.41 989.781 1192.04 989.119C1192.55 988.596 1192.59 988.421 1192.19 988.421C1191.89 988.421 1191.45 988.735 1191.19 989.154Z" fill="#C27BDE"/>
<path d="M1313.01 989.119C1313.64 989.781 1313.64 989.851 1313.01 990.513C1312.64 990.897 1312.5 991.211 1312.72 991.211C1312.9 991.211 1313.38 990.897 1313.75 990.513C1314.37 989.851 1314.37 989.781 1313.75 989.119C1313.38 988.735 1312.9 988.421 1312.72 988.421C1312.5 988.421 1312.64 988.735 1313.01 989.119Z" fill="#C27BDE"/>
<path d="M1315.03 989.119C1315.33 989.607 1315.33 990.025 1315.03 990.513C1314.81 990.897 1314.78 991.211 1314.96 991.211C1315.14 991.211 1315.59 990.897 1315.95 990.513C1316.58 989.851 1316.58 989.781 1315.95 989.119C1315.59 988.735 1315.14 988.421 1314.96 988.421C1314.78 988.421 1314.81 988.735 1315.03 989.119Z" fill="#C27BDE"/>
</g>
<defs>
<clipPath id="clip0_176_289">
<rect width="1440" height="921" fill="white" transform="translate(0 103)"/>
</clipPath>
</defs>
</svg>
