<svg width="426" height="50" viewBox="0 0 426 50" fill="none" xmlns="http://www.w3.org/2000/svg">
<path d="M52.3042 39V11H63.8242C66.3042 11 68.4242 11.4 70.1842 12.2C71.9709 13 73.3442 14.1467 74.3042 15.64C75.2642 17.1333 75.7442 18.9067 75.7442 20.96C75.7442 23.0133 75.2642 24.7867 74.3042 26.28C73.3442 27.7733 71.9709 28.92 70.1842 29.72C68.4242 30.52 66.3042 30.92 63.8242 30.92H55.1842L57.5042 28.48V39H52.3042ZM57.5042 29.04L55.1842 26.52H63.5842C65.8775 26.52 67.5975 26.04 68.7442 25.08C69.9175 24.0933 70.5042 22.72 70.5042 20.96C70.5042 19.1733 69.9175 17.8 68.7442 16.84C67.5975 15.88 65.8775 15.4 63.5842 15.4H55.1842L57.5042 12.84V29.04ZM92.9379 39.4C89.0979 39.4 86.0846 38.32 83.8979 36.16C81.7379 34 80.6579 30.88 80.6579 26.8V11H85.8579V26.6C85.8579 29.48 86.4713 31.5733 87.6979 32.88C88.9513 34.1867 90.7113 34.84 92.9779 34.84C95.2446 34.84 96.9913 34.1867 98.2179 32.88C99.4446 31.5733 100.058 29.48 100.058 26.6V11H105.178V26.8C105.178 30.88 104.085 34 101.898 36.16C99.7379 38.32 96.7513 39.4 92.9379 39.4ZM112.46 39V11H123.98C126.46 11 128.58 11.4 130.34 12.2C132.127 13 133.5 14.1467 134.46 15.64C135.42 17.1333 135.9 18.9067 135.9 20.96C135.9 23.0133 135.42 24.7867 134.46 26.28C133.5 27.7467 132.127 28.88 130.34 29.68C128.58 30.4533 126.46 30.84 123.98 30.84H115.34L117.66 28.48V39H112.46ZM130.78 39L123.7 28.84H129.26L136.38 39H130.78ZM117.66 29.04L115.34 26.56H123.74C126.034 26.56 127.754 26.0667 128.9 25.08C130.074 24.0933 130.66 22.72 130.66 20.96C130.66 19.1733 130.074 17.8 128.9 16.84C127.754 15.88 126.034 15.4 123.74 15.4H115.34L117.66 12.84V29.04ZM141.718 39V11H153.238C155.718 11 157.838 11.4 159.598 12.2C161.385 13 162.758 14.1467 163.718 15.64C164.678 17.1333 165.158 18.9067 165.158 20.96C165.158 23.0133 164.678 24.7867 163.718 26.28C162.758 27.7733 161.385 28.92 159.598 29.72C157.838 30.52 155.718 30.92 153.238 30.92H144.598L146.918 28.48V39H141.718ZM146.918 29.04L144.598 26.52H152.998C155.292 26.52 157.012 26.04 158.158 25.08C159.332 24.0933 159.918 22.72 159.918 20.96C159.918 19.1733 159.332 17.8 158.158 16.84C157.012 15.88 155.292 15.4 152.998 15.4H144.598L146.918 12.84V29.04ZM170.351 39V11H175.551V34.6H190.191V39H170.351ZM199.096 22.64H213.016V26.92H199.096V22.64ZM199.496 34.64H215.296V39H194.296V11H214.736V15.36H199.496V34.64ZM234.053 39.4C231.92 39.4 229.933 39.0533 228.093 38.36C226.28 37.64 224.693 36.64 223.333 35.36C222 34.0533 220.96 32.52 220.213 30.76C219.467 29 219.093 27.08 219.093 25C219.093 22.92 219.467 21 220.213 19.24C220.96 17.48 222.013 15.96 223.373 14.68C224.733 13.3733 226.32 12.3733 228.133 11.68C229.947 10.96 231.933 10.6 234.093 10.6C236.387 10.6 238.48 11 240.373 11.8C242.267 12.5733 243.867 13.7333 245.173 15.28L241.813 18.44C240.8 17.3467 239.667 16.5333 238.413 16C237.16 15.44 235.8 15.16 234.333 15.16C232.867 15.16 231.52 15.4 230.293 15.88C229.093 16.36 228.04 17.04 227.133 17.92C226.253 18.8 225.56 19.84 225.053 21.04C224.573 22.24 224.333 23.56 224.333 25C224.333 26.44 224.573 27.76 225.053 28.96C225.56 30.16 226.253 31.2 227.133 32.08C228.04 32.96 229.093 33.64 230.293 34.12C231.52 34.6 232.867 34.84 234.333 34.84C235.8 34.84 237.16 34.5733 238.413 34.04C239.667 33.48 240.8 32.64 241.813 31.52L245.173 34.72C243.867 36.24 242.267 37.4 240.373 38.2C238.48 39 236.373 39.4 234.053 39.4ZM262.69 39.4C260.503 39.4 258.49 39.04 256.65 38.32C254.81 37.6 253.21 36.6 251.85 35.32C250.49 34.0133 249.436 32.4933 248.69 30.76C247.943 29 247.57 27.08 247.57 25C247.57 22.92 247.943 21.0133 248.69 19.28C249.436 17.52 250.49 16 251.85 14.72C253.21 13.4133 254.81 12.4 256.65 11.68C258.49 10.96 260.49 10.6 262.65 10.6C264.836 10.6 266.836 10.96 268.65 11.68C270.49 12.4 272.09 13.4133 273.45 14.72C274.81 16 275.863 17.52 276.61 19.28C277.356 21.0133 277.73 22.92 277.73 25C277.73 27.08 277.356 29 276.61 30.76C275.863 32.52 274.81 34.04 273.45 35.32C272.09 36.6 270.49 37.6 268.65 38.32C266.836 39.04 264.85 39.4 262.69 39.4ZM262.65 34.84C264.063 34.84 265.37 34.6 266.57 34.12C267.77 33.64 268.81 32.96 269.69 32.08C270.57 31.1733 271.25 30.1333 271.73 28.96C272.236 27.76 272.49 26.44 272.49 25C272.49 23.56 272.236 22.2533 271.73 21.08C271.25 19.88 270.57 18.84 269.69 17.96C268.81 17.0533 267.77 16.36 266.57 15.88C265.37 15.4 264.063 15.16 262.65 15.16C261.236 15.16 259.93 15.4 258.73 15.88C257.556 16.36 256.516 17.0533 255.61 17.96C254.73 18.84 254.036 19.88 253.53 21.08C253.05 22.2533 252.81 23.56 252.81 25C252.81 26.4133 253.05 27.72 253.53 28.92C254.036 30.12 254.73 31.1733 255.61 32.08C256.49 32.96 257.53 33.64 258.73 34.12C259.93 34.6 261.236 34.84 262.65 34.84ZM283.242 39V11H287.522L305.082 32.56H302.962V11H308.122V39H303.842L286.282 17.44H288.402V39H283.242ZM323.709 39L311.469 11H317.109L328.029 36.32H324.789L335.829 11H341.029L328.829 39H323.709ZM348.784 22.64H362.704V26.92H348.784V22.64ZM349.184 34.64H364.984V39H343.984V11H364.424V15.36H349.184V34.64ZM370.781 39V11H382.301C384.781 11 386.901 11.4 388.661 12.2C390.447 13 391.821 14.1467 392.781 15.64C393.741 17.1333 394.221 18.9067 394.221 20.96C394.221 23.0133 393.741 24.7867 392.781 26.28C391.821 27.7467 390.447 28.88 388.661 29.68C386.901 30.4533 384.781 30.84 382.301 30.84H373.661L375.981 28.48V39H370.781ZM389.101 39L382.021 28.84H387.581L394.701 39H389.101ZM375.981 29.04L373.661 26.56H382.061C384.354 26.56 386.074 26.0667 387.221 25.08C388.394 24.0933 388.981 22.72 388.981 20.96C388.981 19.1733 388.394 17.8 387.221 16.84C386.074 15.88 384.354 15.4 382.061 15.4H373.661L375.981 12.84V29.04ZM405.328 39V15.4H396.048V11H419.808V15.4H410.528V39H405.328Z" fill="#860CB1"/>
<path d="M21.5172 5.51639C18.7434 5.75506 15.6968 6.79236 13.305 8.27947C10.0311 10.3265 7.32097 13.5394 5.90226 17.0277C5.61124 17.7437 5.46573 17.9824 5.3475 17.9824C5.25656 17.9824 4.3926 17.7988 3.4377 17.5693C2.47371 17.3398 1.63703 17.1654 1.58247 17.1746C1.51881 17.193 2.20088 19.5797 3.35585 23.3709C4.38351 26.7674 5.25656 29.5396 5.28384 29.5213C5.32022 29.5121 6.23875 28.5299 7.33006 27.3457C8.42138 26.1615 10.3766 24.041 11.668 22.6365C12.9685 21.232 14.0144 20.0662 13.9871 20.0478C13.9689 20.0203 13.1595 19.8275 12.1955 19.598C11.2315 19.3685 10.4221 19.1666 10.3948 19.1482C10.3312 19.0748 10.8677 17.9457 11.3588 17.1287C14.6873 11.6025 21.4899 9.06893 27.574 11.0976C31.2117 12.3185 33.9763 14.7053 35.7861 18.1844L36.2499 19.0748L38.0688 18.2027C39.0601 17.7162 40.0513 17.248 40.2605 17.1471L40.6425 16.9726L40.3514 16.3484C39.8513 15.2652 39.2238 14.2096 38.4871 13.209C34.522 7.82049 28.1196 4.91971 21.5172 5.51639Z" fill="#530C6C"/>
<path d="M39.7966 21.0392C38.9963 21.9113 37.0411 24.0318 35.4405 25.7668C33.8399 27.5017 32.5576 28.9338 32.5758 28.9521C32.594 28.9797 33.4034 29.1724 34.3583 29.3928C35.3222 29.6131 36.1316 29.8242 36.1589 29.8517C36.259 29.9527 35.5314 31.3572 34.8584 32.3853C34.0672 33.5787 32.7213 35.0199 31.6482 35.8094C29.0927 37.6912 26.4098 38.5724 23.2814 38.5724C21.6081 38.5724 20.5167 38.4072 19.0071 37.9023C15.3876 36.709 12.5865 34.2947 10.7767 30.8156L10.3129 29.9344L8.1394 30.9808C6.80254 31.6234 5.96587 32.0732 5.98406 32.1467C6.05681 32.4129 6.93896 34.1111 7.33001 34.7078C11.8135 41.7027 20.1439 45.0166 28.0468 42.9512C33.7853 41.4549 38.578 37.2414 40.7515 31.7703C40.9607 31.2379 41.0971 31.0176 41.2063 31.0176C41.2972 31.0176 42.1703 31.2012 43.1524 31.4306C44.1437 31.6601 44.9804 31.8437 45.0168 31.8254C45.0804 31.7978 41.37 19.4511 41.2881 19.4511C41.2608 19.4603 40.5878 20.1672 39.7966 21.0392Z" fill="#530C6C"/>
</svg>
