<svg width="50" height="50" viewBox="0 0 50 50" fill="none" xmlns="http://www.w3.org/2000/svg">
<path d="M23.5829 0.136769C23.1183 0.312551 22.6735 0.712941 22.4264 1.19146C22.1892 1.64068 22.1793 2.52935 22.3967 2.95903C22.4857 3.13482 27.4972 8.16411 33.5367 14.1309L44.5283 25L33.5367 35.8594C27.4972 41.836 22.4857 46.8653 22.3967 47.0411C22.1793 47.4805 22.1892 48.3594 22.4264 48.8184C22.97 49.8536 24.2748 50.2832 25.3028 49.7559C25.7081 49.5508 48.7985 26.8067 49.1444 26.2793C49.3915 25.8887 49.4212 25.752 49.4212 25C49.4212 24.2481 49.3915 24.1114 49.1444 23.7208C48.7886 23.1836 25.7081 0.449269 25.2929 0.234426C24.858 0.0195818 24.0475 -0.0292463 23.5829 0.136769Z" fill="white"/>
<path d="M2.22225 4.38477C1.78733 4.58008 1.22391 5.14649 1.07564 5.55664C0.917486 5.94727 0.957025 6.77735 1.13495 7.14844C1.22391 7.32422 5.28647 11.416 10.1596 16.2305L19.026 25L10.1596 33.7598C5.28647 38.584 1.22391 42.6758 1.13495 42.8516C0.957025 43.2227 0.917486 44.0527 1.07564 44.4434C1.22391 44.8535 1.78733 45.4199 2.22225 45.6152C2.72637 45.8496 3.39852 45.8496 3.90263 45.6152C4.34744 45.4102 23.059 27.0996 23.573 26.3672C23.83 25.9961 23.8695 25.8496 23.909 25.1367C23.9288 24.4531 23.8992 24.248 23.7212 23.8867C23.4247 23.2813 4.48582 4.64844 3.90263 4.38477C3.39852 4.15039 2.72637 4.15039 2.22225 4.38477Z" fill="white"/>
</svg>
